<mxfile host="app.diagrams.net" modified="2023-07-16T08:15:14.253Z" agent="Mozilla/5.0 (Windows NT 10.0; Win64; x64; rv:109.0) Gecko/20100101 Firefox/115.0" etag="2zJF2CGhd4A1WMX24vQp" version="21.6.2" type="github">
  <diagram name="Page-1" id="2YBvvXClWsGukQMizWep">
    <mxGraphModel dx="1434" dy="754" grid="1" gridSize="10" guides="1" tooltips="1" connect="1" arrows="1" fold="1" page="1" pageScale="1" pageWidth="850" pageHeight="1100" math="0" shadow="0">
      <root>
        <mxCell id="0" />
        <mxCell id="1" parent="0" />
        <mxCell id="aM9ryv3xv72pqoxQDRHE-1" value="User Service" style="shape=umlLifeline;perimeter=lifelinePerimeter;whiteSpace=wrap;html=1;container=0;dropTarget=0;collapsible=0;recursiveResize=0;outlineConnect=0;portConstraint=eastwest;newEdgeStyle={&quot;edgeStyle&quot;:&quot;elbowEdgeStyle&quot;,&quot;elbow&quot;:&quot;vertical&quot;,&quot;curved&quot;:0,&quot;rounded&quot;:0};" parent="1" vertex="1">
          <mxGeometry x="40" y="40" width="100" height="480" as="geometry" />
        </mxCell>
        <mxCell id="aM9ryv3xv72pqoxQDRHE-2" value="" style="html=1;points=[];perimeter=orthogonalPerimeter;outlineConnect=0;targetShapes=umlLifeline;portConstraint=eastwest;newEdgeStyle={&quot;edgeStyle&quot;:&quot;elbowEdgeStyle&quot;,&quot;elbow&quot;:&quot;vertical&quot;,&quot;curved&quot;:0,&quot;rounded&quot;:0};" parent="aM9ryv3xv72pqoxQDRHE-1" vertex="1">
          <mxGeometry x="45" y="70" width="10" height="250" as="geometry" />
        </mxCell>
        <mxCell id="aM9ryv3xv72pqoxQDRHE-3" value="Register" style="html=1;verticalAlign=bottom;startArrow=oval;endArrow=block;startSize=8;edgeStyle=elbowEdgeStyle;elbow=vertical;curved=0;rounded=0;dashed=1;" parent="aM9ryv3xv72pqoxQDRHE-1" target="aM9ryv3xv72pqoxQDRHE-2" edge="1">
          <mxGeometry relative="1" as="geometry">
            <mxPoint x="-15" y="70" as="sourcePoint" />
          </mxGeometry>
        </mxCell>
        <mxCell id="aM9ryv3xv72pqoxQDRHE-5" value="Payment Service" style="shape=umlLifeline;perimeter=lifelinePerimeter;whiteSpace=wrap;html=1;container=0;dropTarget=0;collapsible=0;recursiveResize=0;outlineConnect=0;portConstraint=eastwest;newEdgeStyle={&quot;edgeStyle&quot;:&quot;elbowEdgeStyle&quot;,&quot;elbow&quot;:&quot;vertical&quot;,&quot;curved&quot;:0,&quot;rounded&quot;:0};" parent="1" vertex="1">
          <mxGeometry x="220" y="40" width="100" height="480" as="geometry" />
        </mxCell>
        <mxCell id="aM9ryv3xv72pqoxQDRHE-6" value="" style="html=1;points=[];perimeter=orthogonalPerimeter;outlineConnect=0;targetShapes=umlLifeline;portConstraint=eastwest;newEdgeStyle={&quot;edgeStyle&quot;:&quot;elbowEdgeStyle&quot;,&quot;elbow&quot;:&quot;vertical&quot;,&quot;curved&quot;:0,&quot;rounded&quot;:0};" parent="aM9ryv3xv72pqoxQDRHE-5" vertex="1">
          <mxGeometry x="45" y="80" width="10" height="300" as="geometry" />
        </mxCell>
        <mxCell id="jlN3hPBVuA4AhZvyaTU4-1" value="Game Service" style="shape=umlLifeline;perimeter=lifelinePerimeter;whiteSpace=wrap;html=1;container=0;dropTarget=0;collapsible=0;recursiveResize=0;outlineConnect=0;portConstraint=eastwest;newEdgeStyle={&quot;edgeStyle&quot;:&quot;elbowEdgeStyle&quot;,&quot;elbow&quot;:&quot;vertical&quot;,&quot;curved&quot;:0,&quot;rounded&quot;:0};" vertex="1" parent="1">
          <mxGeometry x="362" y="41" width="100" height="479" as="geometry" />
        </mxCell>
        <mxCell id="jlN3hPBVuA4AhZvyaTU4-2" value="" style="html=1;points=[];perimeter=orthogonalPerimeter;outlineConnect=0;targetShapes=umlLifeline;portConstraint=eastwest;newEdgeStyle={&quot;edgeStyle&quot;:&quot;elbowEdgeStyle&quot;,&quot;elbow&quot;:&quot;vertical&quot;,&quot;curved&quot;:0,&quot;rounded&quot;:0};" vertex="1" parent="jlN3hPBVuA4AhZvyaTU4-1">
          <mxGeometry x="45" y="110" width="10" height="270" as="geometry" />
        </mxCell>
        <mxCell id="jlN3hPBVuA4AhZvyaTU4-5" value="Saga Event Prcoessor" style="shape=umlLifeline;perimeter=lifelinePerimeter;whiteSpace=wrap;html=1;container=0;dropTarget=0;collapsible=0;recursiveResize=0;outlineConnect=0;portConstraint=eastwest;newEdgeStyle={&quot;edgeStyle&quot;:&quot;elbowEdgeStyle&quot;,&quot;elbow&quot;:&quot;vertical&quot;,&quot;curved&quot;:0,&quot;rounded&quot;:0};" vertex="1" parent="1">
          <mxGeometry x="746" y="39" width="100" height="481" as="geometry" />
        </mxCell>
        <mxCell id="jlN3hPBVuA4AhZvyaTU4-6" value="" style="html=1;points=[];perimeter=orthogonalPerimeter;outlineConnect=0;targetShapes=umlLifeline;portConstraint=eastwest;newEdgeStyle={&quot;edgeStyle&quot;:&quot;elbowEdgeStyle&quot;,&quot;elbow&quot;:&quot;vertical&quot;,&quot;curved&quot;:0,&quot;rounded&quot;:0};" vertex="1" parent="jlN3hPBVuA4AhZvyaTU4-5">
          <mxGeometry x="45" y="80" width="10" height="340" as="geometry" />
        </mxCell>
        <mxCell id="jlN3hPBVuA4AhZvyaTU4-7" value="Orchestrator" style="shape=umlLifeline;perimeter=lifelinePerimeter;whiteSpace=wrap;html=1;container=0;dropTarget=0;collapsible=0;recursiveResize=0;outlineConnect=0;portConstraint=eastwest;newEdgeStyle={&quot;edgeStyle&quot;:&quot;elbowEdgeStyle&quot;,&quot;elbow&quot;:&quot;vertical&quot;,&quot;curved&quot;:0,&quot;rounded&quot;:0};" vertex="1" parent="1">
          <mxGeometry x="521" y="39" width="100" height="481" as="geometry" />
        </mxCell>
        <mxCell id="jlN3hPBVuA4AhZvyaTU4-8" value="" style="html=1;points=[];perimeter=orthogonalPerimeter;outlineConnect=0;targetShapes=umlLifeline;portConstraint=eastwest;newEdgeStyle={&quot;edgeStyle&quot;:&quot;elbowEdgeStyle&quot;,&quot;elbow&quot;:&quot;vertical&quot;,&quot;curved&quot;:0,&quot;rounded&quot;:0};" vertex="1" parent="jlN3hPBVuA4AhZvyaTU4-7">
          <mxGeometry x="45" y="80" width="10" height="350" as="geometry" />
        </mxCell>
        <mxCell id="jlN3hPBVuA4AhZvyaTU4-10" value="Wait For UserCreditChecked Event" style="html=1;align=left;spacingLeft=2;endArrow=open;rounded=0;edgeStyle=orthogonalEdgeStyle;curved=0;rounded=0;endFill=0;" edge="1" parent="1">
          <mxGeometry relative="1" as="geometry">
            <mxPoint x="580" y="130" as="sourcePoint" />
            <Array as="points">
              <mxPoint x="600" y="160" />
            </Array>
            <mxPoint x="575" y="160" as="targetPoint" />
          </mxGeometry>
        </mxCell>
        <mxCell id="jlN3hPBVuA4AhZvyaTU4-11" value="Wait For GameLimitChecked Event" style="html=1;align=left;spacingLeft=2;endArrow=open;rounded=0;edgeStyle=orthogonalEdgeStyle;curved=0;rounded=0;endFill=0;" edge="1" parent="1">
          <mxGeometry relative="1" as="geometry">
            <mxPoint x="580" y="174" as="sourcePoint" />
            <Array as="points">
              <mxPoint x="600" y="204" />
            </Array>
            <mxPoint x="575" y="204" as="targetPoint" />
          </mxGeometry>
        </mxCell>
        <mxCell id="jlN3hPBVuA4AhZvyaTU4-16" value="Orchestrator Activity" style="shape=umlLifeline;perimeter=lifelinePerimeter;whiteSpace=wrap;html=1;container=0;dropTarget=0;collapsible=0;recursiveResize=0;outlineConnect=0;portConstraint=eastwest;newEdgeStyle={&quot;edgeStyle&quot;:&quot;elbowEdgeStyle&quot;,&quot;elbow&quot;:&quot;vertical&quot;,&quot;curved&quot;:0,&quot;rounded&quot;:0};" vertex="1" parent="1">
          <mxGeometry x="920" y="41" width="100" height="481" as="geometry" />
        </mxCell>
        <mxCell id="jlN3hPBVuA4AhZvyaTU4-17" value="" style="html=1;points=[];perimeter=orthogonalPerimeter;outlineConnect=0;targetShapes=umlLifeline;portConstraint=eastwest;newEdgeStyle={&quot;edgeStyle&quot;:&quot;elbowEdgeStyle&quot;,&quot;elbow&quot;:&quot;vertical&quot;,&quot;curved&quot;:0,&quot;rounded&quot;:0};" vertex="1" parent="jlN3hPBVuA4AhZvyaTU4-16">
          <mxGeometry x="45" y="80" width="10" height="310" as="geometry" />
        </mxCell>
        <mxCell id="jlN3hPBVuA4AhZvyaTU4-18" value="Notify " style="html=1;verticalAlign=bottom;endArrow=open;edgeStyle=elbowEdgeStyle;elbow=horizontal;curved=1;endFill=0;dashed=1;" edge="1" parent="1">
          <mxGeometry relative="1" as="geometry">
            <mxPoint x="790" y="270" as="sourcePoint" />
            <Array as="points">
              <mxPoint x="588" y="270" />
            </Array>
            <mxPoint x="574" y="270" as="targetPoint" />
            <mxPoint as="offset" />
          </mxGeometry>
        </mxCell>
        <mxCell id="jlN3hPBVuA4AhZvyaTU4-19" value="Notify " style="html=1;verticalAlign=bottom;endArrow=open;edgeStyle=elbowEdgeStyle;elbow=horizontal;curved=0;rounded=0;endFill=0;dashed=1;" edge="1" parent="1">
          <mxGeometry relative="1" as="geometry">
            <mxPoint x="790" y="372" as="sourcePoint" />
            <Array as="points">
              <mxPoint x="588" y="372" />
            </Array>
            <mxPoint x="574" y="372" as="targetPoint" />
            <mxPoint as="offset" />
          </mxGeometry>
        </mxCell>
        <mxCell id="jlN3hPBVuA4AhZvyaTU4-20" value="Persist Saga Sate" style="html=1;verticalAlign=bottom;endArrow=block;edgeStyle=elbowEdgeStyle;elbow=horizontal;curved=0;rounded=0;" edge="1" parent="1">
          <mxGeometry x="-0.1638" y="-10" relative="1" as="geometry">
            <mxPoint x="578" y="296" as="sourcePoint" />
            <Array as="points" />
            <mxPoint x="967.5" y="295.5" as="targetPoint" />
            <mxPoint as="offset" />
          </mxGeometry>
        </mxCell>
        <mxCell id="jlN3hPBVuA4AhZvyaTU4-21" value="Persist Saga Sate" style="html=1;verticalAlign=bottom;endArrow=block;edgeStyle=elbowEdgeStyle;elbow=horizontal;curved=0;rounded=0;" edge="1" parent="1">
          <mxGeometry x="-0.1638" y="-10" relative="1" as="geometry">
            <mxPoint x="576" y="402" as="sourcePoint" />
            <Array as="points" />
            <mxPoint x="965.5" y="401.5" as="targetPoint" />
            <mxPoint as="offset" />
          </mxGeometry>
        </mxCell>
        <mxCell id="jlN3hPBVuA4AhZvyaTU4-22" value="Mark Saga Completion" style="html=1;align=left;spacingLeft=2;endArrow=block;rounded=0;edgeStyle=orthogonalEdgeStyle;curved=0;rounded=0;" edge="1" parent="1">
          <mxGeometry relative="1" as="geometry">
            <mxPoint x="578" y="415" as="sourcePoint" />
            <Array as="points">
              <mxPoint x="598" y="445" />
            </Array>
            <mxPoint x="573" y="445" as="targetPoint" />
          </mxGeometry>
        </mxCell>
        <mxCell id="jlN3hPBVuA4AhZvyaTU4-25" value="Check User Credit" style="endArrow=open;endSize=12;html=1;rounded=0;" edge="1" parent="1">
          <mxGeometry width="160" relative="1" as="geometry">
            <mxPoint x="100" y="121" as="sourcePoint" />
            <mxPoint x="269.5" y="121" as="targetPoint" />
            <Array as="points" />
          </mxGeometry>
        </mxCell>
        <mxCell id="jlN3hPBVuA4AhZvyaTU4-26" value="Check Game Limit" style="endArrow=open;endSize=12;html=1;rounded=0;" edge="1" parent="1" target="jlN3hPBVuA4AhZvyaTU4-1">
          <mxGeometry width="160" relative="1" as="geometry">
            <mxPoint x="99.5" y="161" as="sourcePoint" />
            <mxPoint x="279.5" y="161" as="targetPoint" />
            <Array as="points" />
          </mxGeometry>
        </mxCell>
        <mxCell id="jlN3hPBVuA4AhZvyaTU4-27" value="User Credit Checked" style="endArrow=open;endSize=12;dashed=1;html=1;rounded=0;" edge="1" parent="1">
          <mxGeometry width="160" relative="1" as="geometry">
            <mxPoint x="280" y="235" as="sourcePoint" />
            <mxPoint x="794.5" y="235" as="targetPoint" />
            <Array as="points" />
          </mxGeometry>
        </mxCell>
        <mxCell id="jlN3hPBVuA4AhZvyaTU4-28" value="Game Limit Checked" style="endArrow=open;endSize=12;dashed=1;html=1;rounded=0;" edge="1" parent="1">
          <mxGeometry x="-0.001" width="160" relative="1" as="geometry">
            <mxPoint x="420" y="327" as="sourcePoint" />
            <mxPoint x="790" y="327" as="targetPoint" />
            <Array as="points" />
            <mxPoint as="offset" />
          </mxGeometry>
        </mxCell>
      </root>
    </mxGraphModel>
  </diagram>
</mxfile>
